<?xml version="1.0" encoding="UTF-8"?><svg id="Calque_2" xmlns="http://www.w3.org/2000/svg" viewBox="0 0 659.21 119.68"><defs><style>.cls-1{fill:#fff;}</style></defs><g id="Calque_1-2"><g><path class="cls-1" d="M559.66,80.55c0,10.41,.21,20.13-.07,29.84-.21,7.29-.77,7.6-8.15,8.05-2.1,.13-4.25,.17-6.33-.07-4.77-.55-6.08-2.43-6-7.19,.19-11.97,.13-23.94,.32-35.91,.26-15.97,.62-31.93,1.06-47.9,.11-3.87,1.95-5.94,5.83-5.9,15.71,.17,31.56-.6,47.08,1.27,22.31,2.69,30.89,27.13,16.47,44.51-1.16,1.4-2.85,2.39-4.39,3.43-3.95,2.67-4.43,5.19-2.51,9.54,4.8,10.8,9.51,21.65,13.95,32.61,1.6,3.94,.56,5.04-3.79,5.28-2.24,.13-4.51-.13-6.74,.11-4.03,.43-6.7-1.24-8.49-4.73-4.27-8.31-9.04-16.41-12.72-24.97-3.16-7.34-7.92-10.51-15.73-9.34-3.32,.5-6.64,.92-9.8,1.35Zm.55-18.64c6.15,0,12.14,.45,18.02-.15,4.32-.44,8.76-1.73,12.68-3.61,4.13-1.98,6.66-5.75,5.75-10.73-.89-4.83-4.67-6.9-8.94-7.92-2.88-.69-5.91-.89-8.89-.96-6.16-.14-12.33-.04-18.63-.04v23.41Z"/><path class="cls-1" d="M49.14,0c3.82,.68,8.87,1.33,13.79,2.5,8.95,2.13,15.44,7.91,20.51,15.23,3.42,4.94,3.07,8.06-.22,10.94-7.7,6.76-9.97,7.4-15.38,2.75-7.56-6.49-15.88-10.27-26.01-9.1-6.21,.72-11.08,3.69-14.19,9.13-5.85,10.25-7.52,21.24-5.39,32.84,.92,5,1.08,10.24,2.66,15.01,5.14,15.5,20.71,22.91,35.65,16.97,3.84-1.53,7.05-4.61,10.57-6.94,5.29-3.49,6.6-3.56,9.48-.65,5.83,5.88,6.71,9.91,3.57,14.74-6.42,9.87-16.44,13.4-27.21,15.17-7.38,1.21-14.79,.76-22.23-1.01-11.44-2.72-18.88-9.72-24.55-19.66C-1.11,78.1-2.3,57.16,3.13,35.67,7.77,17.33,18.96,4.81,38.16,.83c3.14-.65,6.44-.51,10.98-.83Z"/><path class="cls-1" d="M129.2,59.62c5.75,0,11.46,.08,17.17-.02,5.36-.1,10.71-.47,16.07-.59,2.31-.05,3.38-.84,3.31-3.31-.25-7.72-.35-15.45-.51-23.17,0-.37-.04-.75-.07-1.12-.51-8,1.48-10.77,9.34-11.07,8.73-.33,11.63,.56,11.48,10.13-.24,15.21-.35,30.43-.4,45.65-.03,10.46,0,20.92,.25,31.37,.24,10.09-5.78,14.11-15.02,9.52-1.44-.72-2.85-2.98-2.96-4.62-.66-9.57-1.06-19.17-1.24-28.76-.06-2.93-.84-3.88-3.82-3.87-9.22,.03-18.45-.24-27.67-.39-6.05-.1-6.87,.78-6.91,6.67-.05,8.1-.31,16.2-.38,24.31-.03,3.66-.75,6.75-4.86,7.77-5.55,1.37-10.54,.15-12.29-3.72-1.4-3.1-2.41-6.66-2.47-10.03-.32-17.21-.3-34.43-.37-51.64-.03-8.73,.11-17.47-.07-26.2-.08-3.94,1.72-5.99,5.38-6.15,3.59-.16,7.25-.06,10.79,.48,3,.46,2.95,3.29,3.08,5.68,.39,7.47,.72,14.94,1.18,22.4,.21,3.45,.64,6.88,1.01,10.69Z"/><path class="cls-1" d="M464.75,80.7c0,5.65-.12,10.85,.13,16.04,.04,.77,1.76,2.1,2.71,2.1,12.2,.03,24.4-.02,36.6-.3,4.01-.09,6.69,1.12,8.16,4.98,.88,2.32,2.42,4.4,3.12,6.76,1.42,4.71-1,7.95-5.95,7.9-18.21-.18-36.42-.45-54.63-.8-5.14-.1-8.02-3.19-7.98-8.38,.13-15.83,.41-31.67,.55-47.5,.1-11.34,.07-22.67,.06-34.01,0-6.65,.31-6.92,6.86-6.71,9.59,.29,19.18,.61,28.77,.64,7.35,.02,14.7-.29,22.05-.61,11.24-.49,13.8,2.48,11.27,13.35-1.09,4.69-2.9,6.48-7.74,6.54-11.98,.16-23.96,.05-35.94,.1-6.1,.03-6.29,.22-6.81,6.34-.33,3.96-.75,7.94-.66,11.9,.02,.97,1.82,2.62,2.9,2.7,3.42,.27,6.89-.18,10.33-.14,7.48,.09,14.96,.44,22.44,.42,3.36,0,5.29,.93,4.99,4.6-.03,.37-.01,.76,.07,1.12,2.55,11.1-3.07,12.52-11.8,12.87-9.58,.38-19.18,.09-29.52,.09Z"/><path class="cls-1" d="M285.35,81.76c0,7.61-.02,14.94,0,22.26,.01,3.37,.36,6.76,.07,10.09-.1,1.19-1.53,3.08-2.55,3.22-4.04,.58-8.18,.95-12.25,.73-3.65-.2-5.01-2.56-5.04-6.99-.07-13.93-.2-27.86-.24-41.79-.04-14.1-.01-28.21,.03-42.31,.02-4.7,1.29-6.29,5.94-6.24,15.7,.15,31.42,.24,47.1,.98,9.94,.47,18.47,8.07,20.91,17.69,3.16,12.52,1.39,24.02-7.98,33.63-4.48,4.59-9.92,6.88-16.37,7.11-8.73,.3-17.45,.82-26.17,1.27-1.21,.06-2.42,.24-3.46,.35Zm-.62-18.54c10.22-.87,20.01-1.44,29.72-2.64,4.6-.57,7.29-4.32,7.69-8.88,.41-4.61-1.63-7.96-6.23-9.98-10.2-4.48-20.82-1.37-31.18-2.17v23.67Z"/><path class="cls-1" d="M380.2,77.97c0-10.1,.07-20.21-.03-30.31-.05-4.52-1.03-5.47-5.42-5.9-5.34-.52-10.68-1.03-16.03-1.39-3.18-.21-4.85-1.89-5.11-4.88-.24-2.71-.45-5.5-.1-8.18,.71-5.51,2.54-7.08,8.17-7,19.84,.32,39.68,.72,59.51,1.17,4.89,.11,6.95,2.41,6.98,7.22,0,1.75,.1,3.49,.1,5.24,.01,4.82-1.85,6.87-6.65,7.07-5.48,.23-10.97,.19-16.45,.5-4.42,.25-4.99,1.16-4.92,5.67,.29,21.33,.56,42.66,.79,63.99,.05,4.78-.68,5.62-5.37,6.41-1.72,.29-3.47,.45-5.21,.48-8.56,.17-10.02-1.15-10.09-9.82-.08-9.1,.12-18.2,.19-27.31,0-1,0-2,0-2.99h-.35Z"/><path class="cls-1" d="M195.2,68.8c.62-.86,.92-1.58,1.46-2,12.78-10.09,19.43-24.04,24.58-38.94,.49-1.41,.83-2.88,1.43-4.24,.36-.81,1.09-1.45,1.66-2.17,.56,.72,1.32,1.35,1.64,2.16,2.51,6.36,4.58,12.91,7.46,19.1,4.41,9.47,10.41,17.84,18.93,24.2,.54,.4,.72,2.46,.31,2.78-14.62,11.5-21.96,27.38-27.03,44.63-.13,.44-.5,.8-1.2,1.85-.83-1.48-1.54-2.48-2.01-3.58-3.21-7.55-6.01-15.3-9.64-22.64-4.11-8.31-9.98-15.42-17.59-21.15Z"/><path class="cls-1" d="M659.21,106.35c-.11,7.87-5.55,13.44-12.99,13.33-7.86-.12-12.87-5.41-12.73-13.43,.14-8.13,5.46-13.54,13.27-13.49,7.8,.05,12.57,5.25,12.45,13.59Z"/></g></g></svg>